<?xml version="1.0" standalone="no"?>
<!DOCTYPE svg PUBLIC "-//W3C//DTD SVG 20010904//EN"
 "http://www.w3.org/TR/2001/REC-SVG-20010904/DTD/svg10.dtd">
<svg version="1.0" xmlns="http://www.w3.org/2000/svg"
 width="225.000000pt" height="225.000000pt" viewBox="0 0 225.000000 225.000000"
 preserveAspectRatio="xMidYMid meet">

<g transform="translate(0.000000,225.000000) scale(0.100000,-0.100000)"
fill="#000000" stroke="none">
<path d="M934 1988 c3 -18 8 -52 12 -75 4 -24 11 -43 16 -43 5 0 6 16 2 35 -8
45 11 47 51 5 16 -16 33 -30 39 -30 5 0 -3 13 -19 30 -23 24 -26 32 -16 44 7
8 11 25 9 38 -3 20 -10 23 -52 26 l-48 3 6 -33z m80 6 c9 -22 -13 -46 -38 -42
-15 2 -22 12 -24 31 -3 24 0 27 26 27 18 0 32 -6 36 -16z"/>
<path d="M833 1988 c-18 -6 -33 -16 -33 -22 0 -6 10 -39 22 -73 20 -54 26 -62
43 -57 47 15 67 25 62 31 -4 3 -20 0 -37 -7 -35 -14 -36 -14 -45 20 -5 22 -1
28 22 37 l28 12 -32 -5 c-26 -4 -32 -1 -38 17 -7 22 7 39 32 39 6 0 15 5 18
10 7 12 1 11 -42 -2z"/>
<path d="M708 1934 c-16 -8 -28 -20 -28 -27 1 -19 66 -128 73 -121 3 4 -1 18
-10 31 -16 24 -16 26 8 44 26 20 20 25 -11 9 -15 -8 -21 -6 -30 9 -15 30 -13
36 23 54 17 8 25 16 17 16 -8 0 -27 -7 -42 -15z"/>
<path d="M583 1853 c-8 -3 -4 -25 13 -75 24 -73 42 -105 30 -56 -5 22 -1 31
20 44 21 15 29 15 46 5 17 -10 40 -8 27 2 -34 28 -127 83 -136 80z m55 -76
c-22 -19 -22 -18 -34 15 -18 49 -17 50 21 26 l35 -23 -22 -18z"/>
<path d="M1130 1456 l0 -326 -325 0 -325 0 0 -51 c0 -145 88 -323 217 -438
100 -89 272 -161 385 -161 l48 0 0 325 0 325 326 0 327 0 -7 68 c-31 301 -284
555 -578 579 l-68 6 0 -327z"/>
<path d="M472 1754 c-16 -11 -22 -24 -20 -42 4 -33 38 -41 74 -17 30 19 54 13
54 -13 0 -25 -19 -42 -50 -42 -22 -1 -23 -2 -8 -11 36 -21 88 33 69 70 -16 28
-35 31 -67 10 -36 -23 -50 -24 -58 -3 -9 23 11 44 41 44 14 0 21 4 18 10 -9
14 -27 12 -53 -6z"/>
<path d="M340 1573 c-11 -14 -19 -31 -17 -37 5 -15 119 -78 126 -70 3 4 1 9
-5 11 -26 9 -47 31 -40 41 4 7 25 12 46 12 21 0 42 5 46 12 5 8 -4 9 -34 4
-36 -5 -42 -4 -42 12 0 46 -48 55 -80 15z m70 -8 c0 -2 -5 -15 -11 -29 -10
-21 -15 -23 -35 -14 -28 13 -30 25 -8 49 13 14 21 16 35 8 11 -5 19 -12 19
-14z"/>
<path d="M281 1434 c-24 -30 -26 -43 -10 -78 26 -57 115 -55 139 3 32 78 -77
141 -129 75z m77 5 c53 -18 56 -92 5 -105 -64 -16 -113 64 -61 100 12 9 23 16
24 16 0 0 15 -5 32 -11z"/>
<path d="M236 1284 c-13 -33 -7 -74 12 -75 9 0 41 -4 70 -8 29 -4 55 -4 58 1
3 4 -5 8 -18 8 -35 0 -51 14 -43 39 4 12 2 21 -4 21 -6 0 -11 -11 -11 -25 0
-25 -13 -31 -43 -19 -11 4 -14 15 -10 40 6 35 0 46 -11 18z"/>
<path d="M1850 889 c-33 -61 29 -96 70 -40 22 32 44 39 55 20 12 -18 -4 -55
-27 -67 l-23 -11 22 0 c43 -2 60 79 21 100 -19 10 -25 8 -52 -25 -33 -39 -50
-45 -60 -21 -8 22 4 45 28 55 21 9 21 9 -1 9 -13 1 -27 -8 -33 -20z"/>
<path d="M1745 684 c-14 -15 -25 -30 -25 -34 0 -12 111 -92 118 -85 4 3 -4 14
-17 24 -33 25 -19 41 37 43 l47 1 -42 4 c-38 4 -43 7 -43 28 0 21 -24 45 -45
45 -3 0 -17 -12 -30 -26z m61 -8 c6 -15 -12 -56 -24 -56 -4 0 -15 7 -25 14
-15 12 -16 18 -7 35 12 24 48 28 56 7z"/>
<path d="M1584 516 c-6 -15 33 -156 43 -156 3 0 3 13 0 29 -8 38 31 68 64 50
47 -25 26 2 -36 45 -49 34 -67 42 -71 32z m54 -69 c-22 -19 -22 -18 -34 15
-18 49 -17 50 21 26 l35 -23 -22 -18z"/>
<path d="M1355 395 c-30 -29 -32 -64 -5 -98 26 -33 53 -41 82 -26 27 14 38 28
38 49 -1 10 -4 9 -12 -5 -35 -61 -108 -36 -108 37 0 36 40 64 69 49 28 -15 36
-14 21 4 -19 22 -58 18 -85 -10z"/>
</g>
</svg>
